<?xml version="1.0" encoding="utf-8"?>
<!-- Generator: Adobe Illustrator 17.1.0, SVG Export Plug-In . SVG Version: 6.00 Build 0)  -->
<!DOCTYPE svg PUBLIC "-//W3C//DTD SVG 1.1//EN" "http://www.w3.org/Graphics/SVG/1.1/DTD/svg11.dtd">
<svg version="1.1" id="Layer_1" xmlns="http://www.w3.org/2000/svg" xmlns:xlink="http://www.w3.org/1999/xlink" x="0px" y="0px"
	 width="40px" height="80px" viewBox="0 0 40 80" enable-background="new 0 0 40 80" xml:space="preserve">
<path fill="#383838" d="M20.8,15.9c0.3,0,0.5,0,0.7,0v-3.4c0-0.2,0.1-0.4,0.3-0.5c0.2-0.1,0.3-0.1,0.5,0.1l8.5,7
	c0.1,0.1,0.2,0.2,0.2,0.4c0,0.1-0.1,0.3-0.2,0.4l-8.5,7c-0.1,0.1-0.4,0.2-0.5,0.1c-0.2-0.1-0.3-0.3-0.3-0.5v-3.6
	c-0.5-0.1-1.5-0.3-2.7-0.3c-2.8,0-6.5,0.9-8.8,5.1C9.8,28,9.5,28,9.5,28c-0.3-0.1-0.4-0.3-0.4-0.5C9,16.8,18,15.9,20.8,15.9z"/>
<path fill="#383838" d="M21.4,60l5.8-5.8l-1.4-1.4L20,58.6l-5.8-5.8l-1.4,1.4l5.8,5.8l-5.8,5.8l1.4,1.4l5.8-5.8l5.8,5.8l1.4-1.4
	L21.4,60z"/>
</svg>
